<?xml version="1.0" standalone="no"?><!DOCTYPE svg PUBLIC "-//W3C//DTD SVG 1.1//EN" "http://www.w3.org/Graphics/SVG/1.1/DTD/svg11.dtd"><svg t="1740373057381" class="icon" viewBox="0 0 1024 1024" version="1.1" xmlns="http://www.w3.org/2000/svg" p-id="7368" xmlns:xlink="http://www.w3.org/1999/xlink" width="200" height="200"><path d="M541.556364 921.6c-0.814545 0-1.559273-0.628364-2.094546-1.745455a8.052364 8.052364 0 0 1-0.605091-4.026181c0.046545-0.442182 4.165818-44.334545 8.052364-106.146909 3.956364-62.580364-13.940364-125.975273-14.126546-126.603637-0.698182-2.443636-0.162909-5.422545 1.163637-6.679273 1.349818-1.256727 3.002182-0.325818 3.677091 2.094546 0.791273 2.699636 18.850909 66.676364 14.731636 132.305454a3868.066909 3868.066909 0 0 1-8.098909 106.682182c-0.232727 2.373818-1.373091 4.119273-2.699636 4.119273z" fill="#56F450" p-id="7369"></path><path d="M281.786182 503.435636c-19.246545 13.614545-36.189091 30.324364-47.406546 50.315637-16.430545 28.904727-19.758545 65.256727-5.213091 97.186909 14.242909 31.790545 43.543273 53.015273 75.287273 54.528a77.498182 77.498182 0 0 0 50.315637-16.733091c8.122182 28.276364 27.508364 52.363636 54.597818 63.255273 22.132364 8.890182 45.032727 7.237818 64.279272-3.141819 27.857455-14.754909 43.962182-45.707636 46.266182-80.104727l0.651637 2.048c11.054545 32.954182 34.722909 59.066182 65.629091 66.350546 21.271273 5.213091 43.845818 1.047273 62.952727-13.102546 23.389091-17.361455 35.909818-45.521455 36.468363-74.891636 16.756364 7.307636 35.328 8.610909 52.968728 3.514182 30.301091-9.448727 53.178182-37.329455 58.740363-71.68 5.818182-34.513455-6.795636-68.840727-30.161454-92.625455-23.901091-24.692364-58.298182-39.051636-92.253091-46.615273a295.330909 295.330909 0 0 0-54.318546-6.330181 293.934545 293.934545 0 0 0 50.874182-19.781819c30.906182-15.848727 60.462545-38.4 77.195637-68.258909 16.430545-28.904727 19.758545-65.256727 5.213091-97.186909-14.242909-31.790545-43.543273-53.015273-75.287273-54.528a77.498182 77.498182 0 0 0-50.315637 16.733091c-8.122182-28.276364-27.508364-52.363636-54.597818-63.255273-22.132364-8.890182-45.032727-7.237818-64.279272 3.141819-27.857455 14.754909-43.962182 45.707636-46.266182 80.104727l-0.651637-2.048c-11.054545-32.954182-34.722909-59.066182-65.629091-66.350546-21.271273-5.213091-43.845818-1.070545-62.952727 13.102546-23.389091 17.361455-35.909818 45.521455-36.468363 74.891636a77.777455 77.777455 0 0 0-52.968728-3.514182c-30.301091 9.448727-53.178182 37.329455-58.740363 71.68-5.818182 34.513455 6.795636 68.840727 30.161454 92.625455 23.901091 24.692364 58.298182 39.051636 92.253091 46.615273a295.330909 295.330909 0 0 0 54.318546 6.330181 293.934545 293.934545 0 0 0-55.505455 22.225455" fill="#56F450" p-id="7370"></path><path d="M230.237091 240.500364a4.957091 4.957091 0 0 1-4.631273-3.281455 5.259636 5.259636 0 0 1 1.326546-5.655273 83.386182 83.386182 0 0 1 31.022545-18.571636 4.817455 4.817455 0 0 1 3.770182 0.349091c1.163636 0.628364 2.048 1.698909 2.443636 3.025454a5.166545 5.166545 0 0 1-3.234909 6.423273c-10.007273 3.281455-19.223273 8.797091-27.368727 16.407273a4.840727 4.840727 0 0 1-3.328 1.303273z m505.716364 122.973091a4.957091 4.957091 0 0 1-4.608-3.258182 5.259636 5.259636 0 0 1 1.233454-5.632 142.894545 142.894545 0 0 0 27.229091-35.328c16.453818-30.347636 18.338909-66.769455 5.026909-97.419637-13.405091-31.441455-41.285818-52.712727-71.028364-54.225454-16.989091-0.488727-33.698909 5.352727-47.080727 16.430545a4.817455 4.817455 0 0 1-4.608 0.861091 5.050182 5.050182 0 0 1-3.258182-3.490909c-8.122182-29.602909-26.973091-52.596364-51.735272-63.045818-20.224-8.517818-41.565091-7.447273-60.113455 3.072-25.088 13.940364-41.425455 43.799273-43.729454 79.941818a5.050182 5.050182 0 0 1-4.352 4.747636 4.957091 4.957091 0 0 1-5.329455-3.560727l-0.116364-0.372363a110.08 110.08 0 0 0-0.512-1.722182c-11.077818-34.606545-34.280727-59.368727-62.138181-66.280728-20.526545-5.259636-41.425455-0.698182-58.88 12.893091-21.387636 16.64-33.978182 43.822545-34.513455 74.612364a5.189818 5.189818 0 0 1-2.280727 4.235636 4.817455 4.817455 0 0 1-4.677818 0.372364 70.562909 70.562909 0 0 0-34.955637-6.283636 5.026909 5.026909 0 0 1-5.329454-4.701091 5.073455 5.073455 0 0 1 4.561454-5.515637c11.124364-0.907636 22.434909 0.605091 33.093818 4.421819 2.327273-30.952727 16.011636-58.135273 38.144-75.357091 19.874909-15.453091 43.752727-20.666182 67.211637-14.661819 26.484364 6.586182 49.175273 27.322182 62.836363 56.762182 6.423273-30.743273 22.970182-55.621818 46.242909-68.561454 21.178182-11.985455 45.544727-13.265455 68.584728-3.537455 25.6 10.798545 45.521455 33.466182 55.389091 62.789818a80.221091 80.221091 0 0 1 47.872-14.336h0.116363c33.466182 1.698909 64.744727 25.367273 79.662546 60.322909 14.568727 33.582545 12.544 73.448727-5.445818 106.612364a152.971636 152.971636 0 0 1-29.114182 37.841455 4.887273 4.887273 0 0 1-3.397818 1.373091z m-34.56 26.647272a4.980364 4.980364 0 0 1-4.794182-3.746909 5.213091 5.213091 0 0 1 2.234182-5.771636 228.538182 228.538182 0 0 0 14.010181-9.495273 4.864 4.864 0 0 1 6.818909 1.28 5.259636 5.259636 0 0 1-1.093818 7.098182c-4.747636 3.490909-9.634909 6.772364-14.615272 9.890909a4.817455 4.817455 0 0 1-2.56 0.744727z m-81.989819 348.253091c-6.330182 0-12.730182-0.814545-19.083636-2.443636a83.851636 83.851636 0 0 1-36.561455-20.061091 5.236364 5.236364 0 0 1-1.582545-4.864 5.073455 5.073455 0 0 1 3.281455-3.84 4.840727 4.840727 0 0 1 4.887272 1.024c9.704727 8.890182 20.573091 14.871273 32.325818 17.780364 20.526545 5.259636 41.425455 0.698182 58.88-12.893091 21.410909-16.64 33.978182-43.822545 34.513455-74.612364a5.166545 5.166545 0 0 1 2.304-4.235636 4.817455 4.817455 0 0 1 4.654545-0.372364c15.685818 7.214545 33.28 8.424727 49.57091 3.490909 28.392727-9.309091 50.106182-37.236364 55.342545-71.144727 5.329455-33.186909-5.469091-67.909818-28.858182-92.881455-25.762909-27.927273-63.069091-41.239273-89.856-47.476363a278.784 278.784 0 0 0-53.387636-6.539637 5.026909 5.026909 0 0 1-4.794182-4.468363 5.12 5.12 0 0 1 3.537455-5.585455 279.272727 279.272727 0 0 0 42.938181-16.826182 4.887273 4.887273 0 0 1 6.516364 2.490182 5.213091 5.213091 0 0 1-2.280727 6.795636c-6.702545 3.281455-13.544727 6.306909-20.48 9.076364 10.170182 1.163636 20.317091 2.839273 30.091636 5.026909 40.354909 9.402182 73.146182 26.833455 94.882909 50.385455 25.530182 27.275636 37.306182 65.303273 31.488 101.655272-5.818182 37.701818-30.231273 68.840727-62.184727 79.290182l-0.093091 0.046546a79.592727 79.592727 0 0 1-49.803636-1.256728c-2.327273 30.952727-16.011636 58.135273-38.144 75.357091-14.475636 11.264-31.092364 17.082182-48.104728 17.082182zM298.891636 480.884364a5.213091 5.213091 0 0 1 0.814546 8.890181c-20.526545 15.220364-36.002909 32.418909-45.986909 51.130182-16.477091 30.347636-18.362182 66.769455-5.050182 97.419637 13.428364 31.441455 41.285818 52.712727 71.028364 54.225454 16.965818 0.488727 33.698909-5.352727 47.080727-16.430545a4.817455 4.817455 0 0 1 4.608-0.861091c1.582545 0.512 2.816 1.815273 3.258182 3.490909 8.122182 29.602909 26.996364 52.596364 51.758545 63.022545 20.200727 8.541091 41.541818 7.447273 60.090182-3.025454 19.502545-10.868364 33.745455-31.348364 40.168727-56.901818l0.977455-4.352a218.088727 218.088727 0 0 0-4.933818-13.242182c-1.047273-2.420364-0.256-5.399273 1.745454-6.632727 2.001455-1.256727 4.468364-0.325818 5.515636 2.094545l0.16291 0.372364 0.09309-1.303273a5.050182 5.050182 0 0 1 4.375273-4.747636 4.957091 4.957091 0 0 1 5.306182 3.560727l0.116364 0.395636 0.535272 1.698909c3.095273 9.704727 7.214545 18.781091 12.241455 26.996364a5.282909 5.282909 0 0 1 0.232727 5.143273 4.957091 4.957091 0 0 1-4.189091 2.769454 4.910545 4.910545 0 0 1-4.421818-2.420363c-2.56-4.189091-4.887273-8.517818-6.958545-12.986182l-0.139637 0.605091c7.936 24.482909 18.897455 67.956364 14.708364 112.197818-5.864727 62.138182-12.101818 106.263273-12.148364 106.705454-0.325818 2.373818-2.024727 4.096-4.026182 4.119273a3.863273 3.863273 0 0 1-3.141818-1.768727 5.701818 5.701818 0 0 1-0.907636-4.026182c0.069818-0.418909 6.237091-44.311273 12.101818-106.123636 3.351273-35.630545-3.886545-71.517091-10.798545-95.953455-8.145455 23.435636-22.737455 42.170182-41.890909 52.829091a75.613091 75.613091 0 0 1-37.445819 9.984c-10.379636 0-20.875636-2.141091-31.115636-6.469818-25.646545-10.798545-45.544727-33.466182-55.435636-62.789818a80.128 80.128 0 0 1-47.848728 14.336h-0.093091c-33.489455-1.698909-64.744727-25.367273-79.685818-60.322909-14.568727-33.582545-12.544-73.448727 5.469091-106.589091 10.682182-20.014545 27.136-38.4 48.872727-54.504728a4.817455 4.817455 0 0 1 4.957091-0.535272z m-105.239272-175.825455a5.352727 5.352727 0 0 1 1.698909 4.864 113.989818 113.989818 0 0 0 28.253091 93.44c25.227636 28.113455 61.789091 41.495273 88.017454 47.778909 16.919273 3.886545 35.002182 6.167273 52.270546 6.586182 2.397091 0.046545 4.398545 1.954909 4.701091 4.491636a5.166545 5.166545 0 0 1-3.49091 5.632 272.267636 272.267636 0 0 0-53.410909 23.04 4.631273 4.631273 0 0 1-2.327272 0.628364 4.933818 4.933818 0 0 1-4.701091-3.886545 5.306182 5.306182 0 0 1 2.397091-5.818182 282.228364 282.228364 0 0 1 31.953454-15.522909c-9.914182-1.140364-19.758545-2.839273-29.486545-5.050182-39.517091-9.472-71.656727-26.996364-92.928-50.711273a124.788364 124.788364 0 0 1-30.836364-102.306909 5.12 5.12 0 0 1 3.072-4.002909 4.631273 4.631273 0 0 1 4.817455 0.837818z m29.463272-57.6a5.399273 5.399273 0 0 1-0.349091 7.307636 84.712727 84.712727 0 0 0-9.774545 11.17091 4.747636 4.747636 0 0 1-3.816727 2.001454 4.840727 4.840727 0 0 1-4.375273-2.885818 5.445818 5.445818 0 0 1 0.535273-5.445818c3.281455-4.514909 6.935273-8.704 10.938182-12.520728a4.654545 4.654545 0 0 1 6.842181 0.372364z" fill="#C8FFC6" p-id="7371"></path><path d="M210.338909 332.334545a5.748364 5.748364 0 0 1-4.072727-1.62909 4.887273 4.887273 0 0 1-1.442909-3.863273c0.232727-2.909091 0.628364-5.841455 1.163636-8.704 0.465455-2.792727 3.328-4.654545 6.330182-4.189091 3.025455 0.465455 5.050182 3.095273 4.538182 5.864727-0.465455 2.606545-0.791273 5.213091-1.024 7.819637-0.232727 2.676364-2.629818 4.724364-5.492364 4.724363z m13.824-41.029818a5.608727 5.608727 0 0 1-4.817454-2.583272 4.794182 4.794182 0 0 1 0.069818-5.143273 88.994909 88.994909 0 0 1 49.733818-37.422546 89.786182 89.786182 0 0 1 49.896727 0.930909c2.536727-27.834182 16.360727-52.224 38.632727-67.723636a84.875636 84.875636 0 0 1 68.189091-13.312 5.352727 5.352727 0 0 1 4.002909 3.560727 4.864 4.864 0 0 1-1.326545 4.957091 5.818182 5.818182 0 0 1-5.306182 1.396364 73.309091 73.309091 0 0 0-58.926545 11.566545c-21.457455 14.941091-34.048 39.330909-34.606546 66.978909a5.050182 5.050182 0 0 1-2.56 4.189091 5.888 5.888 0 0 1-5.189818 0.395637 77.847273 77.847273 0 0 0-49.640727-3.141818 78.08 78.08 0 0 0-43.403637 32.86109 5.608727 5.608727 0 0 1-4.747636 2.490182z m104.261818 206.754909a5.469091 5.469091 0 0 1-5.352727-3.863272 4.980364 4.980364 0 0 1 2.699636-5.748364c1.559273-0.791273 3.141818-1.582545 4.724364-2.327273a5.748364 5.748364 0 0 1 7.400727 2.187637c1.396364 2.490182 0.372364 5.562182-2.304 6.888727l-4.538182 2.234182a5.864727 5.864727 0 0 1-2.629818 0.628363z m28.276364-12.218181a5.422545 5.422545 0 0 1-5.422546-4.142546 5.050182 5.050182 0 0 1 3.374546-5.725091c4.189091-1.536 8.448-3.025455 12.706909-4.398545a5.864727 5.864727 0 0 1 5.422545 0.977454 4.887273 4.887273 0 0 1 1.815273 4.817455 5.259636 5.259636 0 0 1-3.607273 3.886545 304.174545 304.174545 0 0 0-12.241454 4.235637 5.911273 5.911273 0 0 1-2.048 0.349091z m-107.845818 87.598545a5.655273 5.655273 0 0 1-4.561455-2.234182 4.794182 4.794182 0 0 1-0.605091-4.724363 120.226909 120.226909 0 0 1 13.079273-23.04 5.678545 5.678545 0 0 1 4.980364-2.327273c1.978182 0.139636 3.723636 1.233455 4.608 2.885818a4.794182 4.794182 0 0 1-0.418909 5.12 109.917091 109.917091 0 0 0-11.93891 21.038545 5.538909 5.538909 0 0 1-5.143272 3.281455zM272.663273 532.48a6.423273 6.423273 0 0 1-5.352728-10.007273c12.288-18.269091 29.207273-35.188364 50.292364-50.292363a6.423273 6.423273 0 0 1 7.493818 10.426181c-19.851636 14.219636-35.677091 30.021818-47.080727 47.01091a6.423273 6.423273 0 0 1-5.352727 2.862545z" fill="#FFFFFF" p-id="7372"></path><path d="M525.381818 859.741091c7.144727-0.884364 13.824-2.792727 18.432-4.770909 2.746182-1.163636 4.654545-2.327273 5.469091-3.304727 2.094545-2.490182 4.375273-13.079273 3.490909-24.250182-0.628364-7.377455-2.56-15.057455-6.912-20.666182a19.781818 19.781818 0 0 0-17.640727-7.912727 19.013818 19.013818 0 0 0-12.753455 6.656 17.943273 17.943273 0 0 0-3.700363 16.384 19.921455 19.921455 0 0 0-11.52 2.909091 18.478545 18.478545 0 0 0-8.634182 17.291636c0.651636 6.818909 5.213091 12.334545 11.496727 15.197091 6.469818 2.978909 14.615273 3.351273 22.272 2.466909z" fill="#56F450" p-id="7373"></path><path d="M512.768 860.16c-6.865455 0-12.8-1.140364-17.617455-3.374545-7.866182-3.560727-13.032727-10.402909-13.777454-18.292364a22.341818 22.341818 0 0 1 10.402909-20.805818c3.490909-2.164364 7.447273-3.374545 11.496727-3.537455a21.550545 21.550545 0 0 1 4.933818-17.501091 22.807273 22.807273 0 0 1 17.687273-8.168727c7.261091 0 14.126545 3.490909 18.850909 9.611636 5.585455 7.214545 7.447273 16.965818 7.982546 23.854546 1.000727 12.427636-1.442909 24.785455-4.258909 28.136727-1.442909 1.722182-4.468364 3.211636-6.749091 4.189091a80.570182 80.570182 0 0 1-20.875637 5.399273c-2.676364 0.325818-5.352727 0.465455-8.075636 0.488727z m-8.494545-42.496a20.177455 20.177455 0 0 0-10.542546 3.002182 18.827636 18.827636 0 0 0-8.727273 17.501091c0.628364 6.609455 5.003636 12.381091 11.706182 15.429818 4.352 2.024727 9.751273 3.025455 16.058182 3.025454 2.443636 0 5.003636-0.139636 7.633455-0.465454 6.888727-0.837818 14.336-2.746182 19.874909-5.12 3.886545-1.629091 5.12-2.862545 5.376-3.188364 1.698909-2.024727 4.468364-12.916364 3.467636-25.623272-0.535273-6.423273-2.234182-15.453091-7.284364-22.016a20.130909 20.130909 0 0 0-17.92-8.09891 19.176727 19.176727 0 0 0-12.893091 6.772364 18.106182 18.106182 0 0 0-3.746909 16.593455 1.722182 1.722182 0 0 1-0.349091 1.582545 1.792 1.792 0 0 1-1.512727 0.628364 20.293818 20.293818 0 0 0-1.163636-0.023273z" fill="#C8FFC6" p-id="7374"></path><path d="M602.228364 820.573091a18.315636 18.315636 0 0 0 4.282181 6.097454c3.025455 2.234182 15.383273 3.909818 28.090182 1.815273 8.424727-1.396364 17.058909-4.421818 23.109818-10.053818a23.738182 23.738182 0 0 0 7.540364-21.457455 22.341818 22.341818 0 0 0-8.750545-14.336 20.200727 20.200727 0 0 0-19.083637-2.792727 23.738182 23.738182 0 0 0-4.352-13.242182 20.922182 20.922182 0 0 0-20.573091-8.517818c-7.749818 1.396364-13.684364 7.284364-16.430545 14.941091-2.839273 7.866182-2.56 17.454545-0.884364 26.368 1.629091 8.308364 4.421818 15.965091 7.051637 21.178182z" fill="#F44444" p-id="7375"></path><path d="M621.009455 824.32c-7.005091 0-13.009455-1.070545-15.26691-2.746182a18.292364 18.292364 0 0 1-4.305454-5.981091 76.171636 76.171636 0 0 1-6.376727-19.083636c-1.233455-6.586182-2.094545-16.104727 0.861091-24.203636 2.722909-7.610182 8.610909-12.939636 15.755636-14.219637a18.711273 18.711273 0 0 1 3.444364-0.325818c6.283636 0 12.381091 3.165091 16.290909 8.448a22.853818 22.853818 0 0 1 4.002909 10.496 19.339636 19.339636 0 0 1 16.337454 3.281455c4.468364 3.281455 7.447273 8.145455 8.401455 13.730909a22.597818 22.597818 0 0 1-7.214546 20.48c-6.213818 5.771636-14.964364 8.215273-21.201454 9.262545a66.094545 66.094545 0 0 1-10.728727 0.861091z m-5.888-63.162182a15.732364 15.732364 0 0 0-2.885819 0.279273c-6.004364 1.070545-10.984727 5.585455-13.288727 12.101818-2.676364 7.307636-1.861818 16.151273-0.698182 22.295273 1.233455 6.376727 3.490909 13.172364 6.050909 18.152727 1.768727 3.514182 2.955636 4.561455 3.281455 4.794182 1.117091 0.837818 5.771636 2.141091 13.405091 2.141091 3.490909 0 6.912-0.279273 10.24-0.837818 5.818182-0.954182 13.963636-3.211636 19.595636-8.424728a19.130182 19.130182 0 0 0 6.144-17.338181 17.92 17.92 0 0 0-7.074909-11.543273 16.477091 16.477091 0 0 0-15.406545-2.257455 1.559273 1.559273 0 0 1-1.466182-0.209454 1.722182 1.722182 0 0 1-0.698182-1.349818 19.223273 19.223273 0 0 0-3.490909-10.705455 17.175273 17.175273 0 0 0-13.730909-7.098182z" fill="#C8FFC6" p-id="7376"></path></svg>